<svg width="200" height="130" viewBox="0 0 200 130" fill="none" xmlns="http://www.w3.org/2000/svg">
<path d="M172.935 16.7603C174.571 16.7603 175.898 15.4335 175.898 13.7969C175.898 12.1601 174.571 10.8335 172.935 10.8335C171.298 10.8335 169.971 12.1601 169.971 13.7969C169.971 15.4335 171.298 16.7603 172.935 16.7603Z" fill="#D7E8F0"/>
<path d="M181.121 17.2752C182.454 17.2752 183.534 16.1945 183.534 14.8618C183.534 13.5288 182.454 12.4484 181.121 12.4484C179.788 12.4484 178.708 13.5288 178.708 14.8618C178.708 16.1945 179.788 17.2752 181.121 17.2752Z" fill="#D7E8F0"/>
<path d="M135.535 62.6502C135.535 62.6502 135.112 61.438 136.355 61.2092C137.598 60.9804 139.149 59.7154 139.847 62.6502C140.544 65.585 144.306 79.8476 143.538 81.9904C142.77 84.1332 139.191 87.7346 139.138 86.958C139.085 86.1814 138.604 77.0998 137.633 73.461C136.663 69.8222 135.535 62.6502 135.535 62.6502Z" fill="#D7E8F0"/>
<path d="M130.712 48.7901C130.846 48.8935 131.359 51.3311 133.238 51.5819C135.117 51.8327 136.61 51.1419 135.352 48.6867C134.094 46.2315 133.203 42.6829 132.529 44.4693C132.324 44.9984 132.006 45.4765 131.599 45.8712C131.191 46.2658 130.702 46.5672 130.167 46.7551L130.712 48.7901Z" fill="#D7E8F0"/>
<path d="M127.199 34.84L127.148 34.8906C126.928 35.1436 126.745 35.4538 126.462 35.654C125.692 36.1974 124.101 36.3008 123.344 36.0038C123.313 35.9708 123.28 35.9378 123.254 35.907C122.931 35.544 122.594 35.1832 122.251 34.807C113.231 25.094 96.106 12.5276 71.6794 11.707V10.09C71.7762 10.09 71.8796 10.09 71.9786 10.09C90.9316 10.09 111.781 20.2826 125.659 33.3264C126.059 33.7004 126.453 34.0772 126.842 34.4572C126.954 34.587 127.082 34.7102 127.199 34.84Z" fill="#D7E8F0"/>
<path d="M64.074 128.173C63.5042 127.819 62.9344 127.442 62.38 127.073" stroke="black" stroke-width="1.30264" stroke-miterlimit="10"/>
<path d="M196.439 112.766L175.099 127.783C175.072 127.77 175.048 127.75 175.022 127.737C173.521 126.82 172.842 125.317 171.594 124.162C170.404 123.062 168.84 122.235 167.183 122.235C165.655 122.22 164.175 122.768 163.025 123.775C161.991 124.719 161.331 125.999 160.308 126.956C159.147 128.067 157.603 128.69 155.996 128.696C154.91 128.697 153.841 128.423 152.889 127.899C151.937 127.376 151.132 126.62 150.551 125.702L150.265 125.225C149.683 124.307 148.879 123.552 147.927 123.028C146.975 122.505 145.907 122.231 144.82 122.231C143.734 122.231 142.665 122.505 141.713 123.028C140.761 123.552 139.957 124.307 139.375 125.225L139.091 125.702C138.511 126.619 137.71 127.374 136.76 127.898C135.811 128.422 134.744 128.698 133.66 128.701C132.054 128.694 130.512 128.071 129.352 126.961C128.325 126.004 127.671 124.723 126.628 123.779C125.479 122.772 123.999 122.223 122.47 122.239C120.823 122.239 119.256 123.06 118.07 124.167C116.823 125.324 116.145 126.824 114.645 127.742C113.642 128.371 112.482 128.705 111.298 128.705C110.114 128.705 108.953 128.371 107.95 127.742C106.45 126.824 105.77 125.322 104.523 124.167C103.333 123.067 101.768 122.239 100.123 122.239C98.5947 122.225 97.1147 122.773 95.9648 123.779C94.9308 124.723 94.2708 126.004 93.25 126.961C92.0877 128.071 90.5435 128.694 88.9358 128.701C87.8494 128.702 86.7802 128.427 85.8283 127.904C84.8761 127.38 84.072 126.624 83.4908 125.707L83.207 125.229C82.6248 124.312 81.8203 123.556 80.8684 123.033C79.9162 122.51 78.8474 122.235 77.7609 122.235C76.6745 122.235 75.6055 122.51 74.6536 123.033C73.7014 123.556 72.8969 124.312 72.3148 125.229L72.031 125.707C70.6626 128.01 67.7278 129.077 65.1582 128.492C62.0122 127.77 61.196 124.64 58.6528 123.15C57.9422 122.737 57.1304 122.53 56.378 122.198C54.0196 121.17 52.4532 118.997 50.5898 117.316L56.0502 122.246C55.5332 121.78 55.2076 120.266 54.8512 119.606C54.3155 118.626 53.6979 117.694 53.0054 116.819C51.6172 115.059 50.1322 113.417 48.7418 111.651C45.5826 107.638 42.3794 103.66 39.2246 99.6431C37.0928 96.9283 34.983 94.1959 32.9238 91.4239C31.441 89.4241 28.0838 85.8865 30.2838 83.2971C30.7493 82.7957 31.3827 82.4827 32.0636 82.4171C35.038 82.0167 38.5184 82.9913 41.4752 83.3521C48.337 84.1947 55.1922 85.0813 62.0518 85.9349C71.2302 87.0701 80.4196 88.2009 89.5826 89.5407L91.1358 89.7761L91.6792 89.8597C91.952 89.9059 92.1588 89.9455 92.293 89.9631L92.4624 89.9895C92.4734 89.991 92.4844 89.991 92.4954 89.9895L195.04 106.668C195.702 106.776 196.317 107.079 196.807 107.539C197.296 107.998 197.638 108.593 197.788 109.247C197.938 109.901 197.89 110.585 197.649 111.212C197.409 111.839 196.988 112.38 196.439 112.766Z" fill="#9975B3"/>
<path d="M175.112 127.786L196.439 112.768C196.989 112.383 197.412 111.842 197.652 111.215C197.893 110.588 197.942 109.903 197.792 109.248C197.641 108.594 197.299 107.999 196.809 107.539C196.319 107.08 195.703 106.777 195.04 106.67L28.6452 79.6099C25.6378 79.1259 23.5676 82.5469 25.4046 84.9845L45 111.028C48.2663 115.139 51.9441 118.906 55.9758 122.27" stroke="black" stroke-width="1.30264" stroke-miterlimit="10"/>
<path d="M184.85 122.237C184.855 123.385 184.553 124.514 183.974 125.506C183.396 126.498 182.563 127.317 181.562 127.878C180.56 128.439 179.426 128.722 178.278 128.697C177.13 128.673 176.01 128.341 175.033 127.737C173.533 126.818 172.855 125.317 171.606 124.158C170.416 123.058 168.856 122.233 167.206 122.233C165.678 122.218 164.198 122.766 163.048 123.773C162.012 124.719 161.352 125.997 160.329 126.954C159.167 128.064 157.624 128.686 156.017 128.692C154.93 128.692 153.862 128.418 152.91 127.894C151.958 127.371 151.153 126.615 150.572 125.698L150.288 125.22C149.706 124.303 148.902 123.548 147.95 123.024C146.998 122.501 145.929 122.226 144.843 122.226C143.756 122.226 142.688 122.501 141.736 123.024C140.784 123.548 139.98 124.303 139.398 125.22L139.112 125.698C138.531 126.619 137.727 127.377 136.773 127.903C135.82 128.428 134.749 128.704 133.66 128.703C132.054 128.696 130.512 128.074 129.35 126.965C128.325 126.008 127.667 124.73 126.631 123.784C125.481 122.777 124.001 122.229 122.473 122.244C120.819 122.244 119.257 123.062 118.073 124.169C116.824 125.328 116.146 126.829 114.646 127.748C113.641 128.376 112.481 128.709 111.296 128.709C110.112 128.709 108.951 128.376 107.947 127.748C106.446 126.829 105.769 125.328 104.521 124.169C103.331 123.069 101.769 122.244 100.121 122.244C98.5931 122.229 97.1132 122.777 95.9632 123.784C94.927 124.73 94.2692 126.008 93.244 126.965C92.0827 128.074 90.5402 128.696 88.9342 128.703C87.8477 128.704 86.7787 128.43 85.8267 127.906C84.8746 127.382 84.0705 126.627 83.4892 125.709L83.2032 125.231C82.6213 124.314 81.817 123.559 80.8653 123.035C79.9134 122.512 78.8446 122.237 77.7582 122.237C76.6719 122.237 75.6031 122.512 74.6514 123.035C73.6995 123.559 72.8951 124.314 72.3132 125.231L72.0294 125.709C71.4478 126.626 70.6434 127.382 69.6915 127.905C68.7396 128.429 67.6708 128.703 66.5844 128.703C64.9778 128.697 63.4345 128.075 62.2724 126.965C61.2494 126.008 60.5894 124.73 59.5532 123.784C58.4033 122.777 56.9233 122.229 55.3952 122.244C53.7408 122.244 52.181 123.062 50.9952 124.169C49.7456 125.328 49.068 126.829 47.5676 127.748C46.591 128.352 45.4708 128.684 44.3228 128.708C43.1749 128.733 42.0412 128.45 41.0396 127.889C40.0379 127.328 39.2048 126.509 38.6266 125.517C38.0482 124.525 37.7462 123.396 37.7512 122.248" stroke="black" stroke-width="1.30264" stroke-miterlimit="10"/>
<path d="M139.517 61.3301C141.204 67.8751 142.401 74.5873 143.738 81.1301" stroke="black" stroke-width="1.30264" stroke-linecap="round" stroke-linejoin="round"/>
<path d="M1 128.701V80.7538C1 41.7324 32.636 10.0964 71.6574 10.0964C90.6126 10.0964 111.462 20.289 125.337 33.3328C125.738 33.7068 126.132 34.0837 126.521 34.4636C126.642 34.5868 126.772 34.71 126.888 34.8398" stroke="black" stroke-width="1.30264" stroke-linecap="round" stroke-linejoin="round"/>
<path d="M132.247 42.2495C133.396 44.34 134.432 46.4902 135.351 48.6909C135.415 48.8537 135.488 49.0077 135.552 49.1705C135.772 49.7007 135.992 50.2311 136.185 50.7679" stroke="black" stroke-width="1.30264" stroke-linecap="round" stroke-linejoin="round"/>
<path d="M169.137 29.417C169.137 29.417 166.341 34.609 173.022 35.0402C179.704 35.4714 184.062 30.1562 184.062 30.1562" stroke="black" stroke-width="1.30264" stroke-linecap="round" stroke-linejoin="round"/>
<path d="M156.512 73.2102C157.515 73.637 158.536 74.0572 159.576 74.451C157.056 73.83 154.422 73.8414 151.907 74.484C151.48 74.6006 147.978 76.0768 147.507 76.0064C147.575 74.4664 148.191 68.995 148.607 68.0864C150.409 68.9488 155.115 72.614 156.512 73.2102Z" fill="#2E2E2E"/>
<path d="M197.564 56.4901L195.5 62.1111C195.5 62.1111 190.405 50.4511 179 55.0711C179 55.0711 177.205 61.9725 167.747 60.1091C157.997 58.1907 152.395 55.7861 152.633 54.4749C152.89 53.0647 154.191 50.4181 154.492 50.6183C155.066 49.0202 155.797 47.4831 156.674 46.0291C157.059 45.3933 157.084 46.0291 157.103 45.5891C157.407 39.0353 151.546 37.6691 151.546 37.6691C156.501 32.9941 162.716 30.1539 169.06 29.0891C169.06 29.0891 166.984 33.4561 170.475 34.4901C173.966 35.5241 177.926 35.7375 184.962 29.9317C184.966 29.9449 204.335 33.8697 197.564 56.4901Z" fill="#2E2E2E"/>
<path d="M192.895 66.7466C192.358 69.5164 186.9 96.0748 173.676 101.573C176.127 89.8466 167.241 80.2766 167.241 80.2766C165.661 77.696 163.69 76.1252 161.686 75.2166C170.266 78.1074 179.675 79.0336 187.281 72.9022C189.445 71.1382 191.337 69.0638 192.895 66.7466Z" fill="#2E2E2E"/>
<path d="M169.245 83.3103C167.111 79.7903 164.453 75.9821 159.596 74.5785C154.377 73.0649 148.415 74.4245 145.685 78.3185C143.461 81.4997 141.397 84.7667 139.199 87.9743C138.559 88.9181 137.899 89.8619 137.219 90.7925C136.366 91.9827 135.506 93.1663 134.652 94.3499C134.115 95.0935 133.585 95.8371 133.048 96.5741" stroke="black" stroke-width="1.30264" stroke-miterlimit="10"/>
<path d="M147.166 76.7059C145.639 75.8503 144.05 75.1091 142.414 74.4883" stroke="black" stroke-width="1.30264" stroke-miterlimit="10"/>
<path d="M97.8 90.8563C101.214 88.2889 104.635 85.7215 107.993 83.0705C113.695 78.5759 119.263 73.6919 126.759 72.5875C130.373 72.0736 134.052 72.2271 137.611 73.0407" stroke="black" stroke-width="1.30264" stroke-miterlimit="10"/>
<path d="M192.941 66.4849C192.941 66.4849 186.475 102.109 169.06 102.552" stroke="black" stroke-width="1.30264" stroke-miterlimit="10"/>
<path d="M162.656 96.9746L159.981 100.97" stroke="black" stroke-width="1.30264" stroke-miterlimit="10"/>
<path d="M121.837 94.7703C121.758 94.7571 123.102 93.9805 124.735 93.0587C126.307 92.1699 128.125 91.8166 129.916 92.052C131.707 92.2874 133.372 93.0985 134.661 94.3633" stroke="black" stroke-width="1.30264" stroke-miterlimit="10"/>
<path d="M129.92 46.8475C130.327 47.7671 131.088 49.3929 131.504 50.4093" stroke="black" stroke-width="1.30264" stroke-linecap="round" stroke-linejoin="round"/>
<path d="M139.2 87.9855C138.702 78.6333 136.96 67.4529 135.2 61.3809" stroke="black" stroke-width="1.30264" stroke-linecap="round" stroke-linejoin="round"/>
<path d="M152.296 54.4838C153.722 51.2344 155.431 48.1174 157.405 45.1689" stroke="black" stroke-width="1.30264" stroke-linecap="round" stroke-linejoin="round"/>
<path d="M148.444 67.7102C147.811 71.0102 147.311 73.923 147.008 76.266" stroke="black" stroke-width="1.30264" stroke-linecap="round" stroke-linejoin="round"/>
<path d="M171.819 28.748C170.895 28.8316 169.974 28.9498 169.058 29.1023C162.713 30.1692 156.498 33.0094 151.543 37.6822C150.324 38.8298 149.199 40.0739 148.18 41.4024C146.996 42.9292 145.896 45.6396 143.769 45.9938C141.401 46.3832 139.481 44.0424 138.163 42.4254C136.053 39.8382 133.926 37.2708 131.928 34.5934C131.022 33.3768 130.168 31.8588 128.564 31.4892C127.271 31.1922 125.81 32.1228 124.802 32.8334" stroke="black" stroke-width="1.30264" stroke-linecap="round" stroke-linejoin="round"/>
<path d="M131.332 43.1889C132.171 42.9051 132.36 43.9039 132.36 43.9039C132.409 44.3136 132.348 44.7289 132.183 45.1069C132.018 45.4849 131.755 45.8116 131.42 46.0533C130.309 46.9333 128.796 47.2435 127.405 47.1951C126.745 47.1731 125.894 47.0345 125.478 46.4735C125.062 45.9125 125.038 45.1338 125.161 44.4496" stroke="black" stroke-width="1.30264" stroke-linecap="round" stroke-linejoin="round"/>
<path d="M121.408 34.3648C120.978 34.6101 120.603 34.941 120.305 35.3372C120.008 35.7334 119.796 36.1864 119.681 36.6682C119.573 37.0664 119.615 37.4903 119.799 37.8595C119.983 38.2287 120.297 38.5173 120.68 38.6702C122.636 39.5764 124.856 39.7383 126.923 39.1256C128.023 38.7978 128.725 38.0982 129.482 37.293C129.646 37.1166 129.773 36.9091 129.856 36.6825C129.938 36.4561 129.974 36.2154 129.962 35.9748C129.95 35.7341 129.889 35.4982 129.784 35.2815C129.679 35.0646 129.531 34.871 129.35 34.7124C129.134 34.528 128.878 34.3965 128.602 34.3281C128.327 34.2596 128.039 34.2566 127.762 34.3186C127.551 34.371 127.352 34.4651 127.179 34.5958C127.053 34.6798 126.938 34.778 126.835 34.8884C126.638 35.1685 126.408 35.4248 126.151 35.6518C125.196 36.3294 122.946 36.3228 122.653 35.7112" stroke="black" stroke-width="1.30264" stroke-linecap="round" stroke-linejoin="round"/>
<path d="M129.944 36.2766C130.517 36.4665 131.002 36.8572 131.31 37.3766C132.23 39.086 130.274 40.7536 128.875 41.2904C127.24 41.9152 125.472 41.9086 123.756 41.7304C122.95 41.649 121.976 41.6644 121.377 41.0286C121.143 40.7844 120.976 40.4843 120.891 40.157C120.806 39.8296 120.806 39.486 120.891 39.1586C120.923 39.0438 120.969 38.9335 121.03 38.8308" stroke="black" stroke-width="1.30264" stroke-linecap="round" stroke-linejoin="round"/>
<path d="M131.387 39.053C131.387 39.053 132.76 39.658 132.624 41.1122C132.465 42.7996 130.864 43.6598 129.388 44.0624C128.062 44.404 126.691 44.5376 125.324 44.4584C124.963 44.4511 124.603 44.4023 124.253 44.3132C123.181 44.0118 122.317 42.8612 122.581 41.7304C122.581 41.693 122.601 41.6534 122.612 41.616" stroke="black" stroke-width="1.30264" stroke-linecap="round" stroke-linejoin="round"/>
<path d="M134.69 47.1732C135.807 46.7955 136.994 46.6707 138.166 46.808C139.399 46.9158 140.592 47.305 141.653 47.9454C142.753 48.6648 143.745 49.624 144.825 50.3896C147.12 52.0242 149.551 53.3794 152.039 54.6884C157.653 57.6386 166.999 60.2698 169.993 60.1708L170.376 60.1532C172.576 60.03 174.776 59.4162 176.523 58.0544C177.848 57.0076 178.866 55.6227 179.471 54.046C179.961 52.827 180.203 51.5226 180.183 50.2092C180.172 49.7934 180.183 48.942 179.792 48.6692" stroke="black" stroke-width="1.30264" stroke-linecap="round" stroke-linejoin="round"/>
<path d="M135.552 49.1709C136.716 49.1709 136.652 50.6187 135.823 51.0917C135.686 51.1672 135.544 51.2296 135.396 51.2785L135.255 51.3181" stroke="black" stroke-width="1.30264" stroke-linecap="round" stroke-linejoin="round"/>
<path d="M184.04 29.9448C184.764 30.1384 185.488 30.3584 186.212 30.6048L186.458 30.684C190.059 31.8984 193.784 33.7882 196.017 36.9892C198.279 40.2474 199.062 44.2778 198.877 48.196C198.45 57.4184 194.569 66.9818 187.274 72.8734C183.013 76.312 177.667 77.6914 172.25 77.3922C169.573 77.2178 166.922 76.7547 164.344 76.0106C161.578 75.2406 158.795 74.321 156.221 73.0406C155.403 72.6336 154.6 72.1914 153.821 71.7206C151.201 70.1168 148.838 68.139 146.561 66.0798C145.492 65.1074 144.396 64.1438 143.36 63.1406C142.48 62.2936 141.565 61.396 140.383 61.0044C139.922 60.8531 139.437 60.786 138.951 60.8064C137.444 60.8768 136.014 61.4862 134.49 61.286C130.149 60.7228 128.624 56.6352 128.028 52.8204C127.868 51.7798 127.808 50.3498 128.895 49.7668C129.088 49.6601 129.291 49.571 129.5 49.5006C129.852 49.3933 130.231 49.4087 130.573 49.5442C130.915 49.6797 131.202 49.9272 131.385 50.2464C131.665 50.7773 132.116 51.1975 132.666 51.4373C133.216 51.6773 133.831 51.7228 134.41 51.5664L135.24 51.3464L135.381 51.3068" stroke="black" stroke-width="1.30264" stroke-linecap="round" stroke-linejoin="round"/>
<path d="M123.034 36.017L122.937 35.907C122.614 35.544 122.277 35.1832 121.934 34.807C112.914 25.094 95.787 12.5276 71.3604 11.707V10.0834" stroke="black" stroke-width="1.30264" stroke-miterlimit="10"/>
<path d="M186.088 10.7015V10.6817C185.865 9.35045 185.216 8.12725 184.24 7.19467C182.731 5.80867 180.582 5.38408 178.65 5.34228C177.882 5.3282 177.12 5.47098 176.409 5.76204C175.698 6.05288 175.054 6.48562 174.516 7.03408C173.674 6.01768 174.211 4.68668 174.211 4.68668C174.871 3.18188 175.971 2.61428 177.291 2.61868C180.652 2.62968 185.321 6.41588 186.924 7.82388C187.16 8.02848 187.327 8.18468 187.417 8.26388C188.376 9.17688 187.056 14.2501 186.088 10.7015Z" fill="#3957BD"/>
<path d="M177.284 2.6187C178.502 1.6287 180.696 0.546295 183.591 1.98949C186.851 3.61749 187.067 6.37409 186.917 7.82389L177.284 2.6187Z" fill="#3957BD"/>
<path d="M179.378 24.94C179.378 24.94 171.018 27.3908 171.786 16.998C171.975 14.7749 172.328 12.5687 172.844 10.398C172.899 10.178 172.95 9.95797 173.005 9.72257C173.248 8.71079 173.762 7.78437 174.492 7.04297" stroke="black" stroke-width="1.30264" stroke-linecap="round" stroke-linejoin="round"/>
<path d="M186.064 10.6816V10.7014C186.621 13.5196 185.754 16.4566 185.694 16.6414" stroke="black" stroke-width="1.30264" stroke-linecap="round" stroke-linejoin="round"/>
<path d="M185.694 16.67C186.574 15.5106 188.438 16.5842 187.817 17.902C187.17 19.277 185.177 20.5926 185.177 20.5926L183.934 30.4002" stroke="black" stroke-width="1.30264" stroke-linecap="round" stroke-linejoin="round"/>
<path d="M186.064 10.6817C185.085 7.16166 180.47 8.63126 176.754 8.09006C175.573 7.91846 174.882 7.51146 174.492 7.03406C175.03 6.48582 175.674 6.05286 176.385 5.76202C177.096 5.47096 177.858 5.32818 178.626 5.34226C180.558 5.38406 182.707 5.80865 184.216 7.19465C185.192 8.12723 185.841 9.35044 186.064 10.6817Z" fill="black"/>
<path d="M186.069 10.7015V10.6817C185.845 9.35045 185.197 8.12725 184.221 7.19467C182.711 5.80867 180.562 5.38408 178.63 5.34228C177.862 5.3282 177.1 5.47098 176.389 5.76204C175.678 6.05288 175.034 6.48562 174.497 7.03408C173.654 6.01768 174.191 4.68668 174.191 4.68668C174.851 3.18188 175.951 2.61428 177.271 2.61868C180.632 2.62968 185.301 6.41588 186.905 7.82388C187.14 8.02848 187.307 8.18468 187.397 8.26388C188.357 9.17688 187.037 14.2501 186.069 10.7015Z" stroke="black" stroke-width="1.30264" stroke-linecap="round" stroke-linejoin="round"/>
<path d="M177.264 2.6187C178.483 1.6287 180.676 0.546295 183.571 1.98949C186.832 3.61749 187.047 6.37409 186.898 7.82389" stroke="black" stroke-width="1.30264" stroke-linecap="round" stroke-linejoin="round"/>
<path d="M181.121 18.2651C183.001 18.2651 184.524 16.7411 184.524 14.8617C184.524 12.982 183.001 11.4583 181.121 11.4583C179.241 11.4583 177.718 12.982 177.718 14.8617C177.718 16.7411 179.241 18.2651 181.121 18.2651Z" stroke="black" stroke-width="1.30264" stroke-linecap="round" stroke-linejoin="round"/>
<path d="M172.935 16.7603C174.571 16.7603 175.898 15.4335 175.898 13.7969C175.898 12.1601 174.571 10.8335 172.935 10.8335C171.298 10.8335 169.971 12.1601 169.971 13.7969C169.971 15.4335 171.298 16.7603 172.935 16.7603Z" stroke="white" stroke-width="1.30264" stroke-linecap="round" stroke-linejoin="round"/>
<path d="M172.935 17.2004C174.814 17.2004 176.338 15.6766 176.338 13.797C176.338 11.9173 174.814 10.3936 172.935 10.3936C171.055 10.3936 169.531 11.9173 169.531 13.797C169.531 15.6766 171.055 17.2004 172.935 17.2004Z" stroke="black" stroke-width="1.30264" stroke-linecap="round" stroke-linejoin="round"/>
<path d="M177.77 14.2743L176.325 14.0851L175.451 18.0979L176.956 18.1133" stroke="black" stroke-width="1.30264" stroke-linecap="round" stroke-linejoin="round"/>
<path d="M187.085 11.8301C187.439 13.2709 187.374 14.7827 186.9 16.1883C186.9 16.1883 185.626 16.9275 186.007 15.5085C186.387 14.0895 186.227 11.8785 186.227 11.8785L187.085 11.8301Z" fill="black"/>
<path d="M173.676 24.6078L171.507 31.0428" stroke="black" stroke-width="1.30264" stroke-linecap="round" stroke-linejoin="round"/>
<path d="M181.316 19.464C181.717 19.0438 182.174 20.9798 182.196 21.1822C182.225 21.7785 181.857 21.9809 181.316 22.1085C179.822 22.4387 178.258 22.1843 176.945 21.3978C176.725 21.2658 176.285 21.0282 176.274 20.7378C177.827 20.8324 179.959 20.6828 181.175 19.6114C181.219 19.5586 181.27 19.5124 181.316 19.464Z" stroke="black" stroke-width="1.30264" stroke-miterlimit="10"/>
<path d="M179.814 14.7099C180.091 14.6721 180.374 14.6917 180.643 14.7673C180.913 14.843 181.165 14.9732 181.382 15.1499" stroke="black" stroke-width="1.30264" stroke-linecap="round" stroke-linejoin="round"/>
<path d="M173.593 13.81C173.87 13.7722 174.153 13.7917 174.422 13.8674C174.692 13.9431 174.944 14.0734 175.161 14.25" stroke="black" stroke-width="1.30264" stroke-linecap="round" stroke-linejoin="round"/>
<path d="M161.686 75.2055C160.973 74.9679 160.276 74.7149 159.576 74.4553C160.3 74.6434 161.006 74.8945 161.686 75.2055Z" fill="#2E2E2E"/>
<path d="M91.1364 89.7761L91.6798 89.8592C91.5258 89.8395 91.3366 89.8089 91.1364 89.7761Z" fill="#3957BD"/>
<path d="M92.4626 89.9894L92.2932 89.9631L92.4626 89.9894Z" fill="#3957BD"/>
</svg>
