<svg width="21" height="21" viewBox="0 0 21 21" fill="none" xmlns="http://www.w3.org/2000/svg">
<path d="M9.66672 16.966C9.43061 16.966 9.23269 16.8862 9.07297 16.7264C8.91325 16.5667 8.83339 16.3688 8.83339 16.1327V11.1327L3.85422 4.77852C3.65978 4.54241 3.632 4.29241 3.77089 4.02852C3.90978 3.76463 4.12505 3.63269 4.41672 3.63269H16.5834C16.8751 3.63269 17.0903 3.76463 17.2292 4.02852C17.3681 4.29241 17.3403 4.54241 17.1459 4.77852L12.1667 11.1327V16.1327C12.1667 16.3688 12.0869 16.5667 11.9271 16.7264C11.7674 16.8862 11.5695 16.966 11.3334 16.966H9.66672ZM10.5001 11.216L15.5001 4.88269H5.50005L10.5001 11.216Z" fill="#6C737F"/>
</svg>
