<svg width="180" height="51" viewBox="0 0 180 51" fill="none" xmlns="http://www.w3.org/2000/svg">
<g clip-path="url(#clip0_2_825)">
<path d="M147.013 38.4417C145.1 41.3215 141.831 43.2269 138.12 43.2269C134.41 43.2269 131.139 41.3215 129.225 38.4417L123.465 42.2497C126.615 46.9968 132.007 50.1353 138.12 50.1353C144.234 50.1353 149.624 46.9968 152.776 42.2497L147.013 38.4417Z" fill="#1A73BA"/>
<path d="M141.55 32.7336H134.691V21.4565C134.691 18.0268 134.645 15.6287 131.258 15.6287C128.485 15.6287 127.404 17.8853 127.404 20.9393V32.7336H120.545V10.3699H127.312V13.1409C128.392 11.309 130.741 9.80371 133.844 9.80371C137.323 9.80371 139.623 11.1674 140.802 13.8458C141.836 11.9187 144.416 9.80371 147.99 9.80371C150.574 9.80371 152.408 10.5087 153.726 11.965C155.133 13.5655 155.699 15.1143 155.699 20.0465V32.7336H148.84V21.4565C148.84 18.0268 148.84 15.6287 145.453 15.6287C142.634 15.6287 141.556 17.8853 141.556 20.9393V32.7336H141.55Z" fill="#343049"/>
<path d="M46.1558 32.739H39.2964V21.4564C39.2964 18.0267 39.1521 15.6287 35.7687 15.6287C32.9025 15.6287 31.683 17.8852 31.683 20.9392V32.7363H24.8209V0.780273H31.683V12.9992C32.7637 11.2599 35.1127 9.80363 38.3083 9.80363C40.8915 9.80363 42.8676 10.5086 44.1823 11.9649C45.5896 13.5654 46.1558 15.1142 46.1558 20.0464V32.739Z" fill="#343049"/>
<path d="M68.4488 27.1454C68.4488 28.5527 68.6339 29.0236 69.6219 29.0236H69.9486V32.9732C68.9142 33.161 67.8826 33.2535 66.7557 33.2535C64.7822 33.2535 62.9476 32.8779 62.4795 31.2338H62.4332C61.3988 32.358 59.752 33.2998 56.1345 33.2998C51.1996 33.2998 48.053 30.7602 48.053 26.1083C48.053 21.8348 51.2976 20.1418 56.0447 19.3878L60.6966 18.6365C61.916 18.446 62.1038 18.3072 62.1038 17.6022V17.2265C62.1038 15.5362 61.1647 14.5944 58.8157 14.5944C56.4666 14.5944 55.1056 15.5797 55.1056 17.8362L48.7607 17.79C48.6681 12.6672 52.8028 9.89624 59.0988 9.89624C64.834 9.89624 68.4542 11.6819 68.4542 16.7556V27.1427L68.4488 27.1454ZM62.0548 22.5861C61.5404 22.7739 61.1157 23.008 58.7177 23.4816C56.5102 23.9035 54.8661 24.2792 54.8661 26.2036C54.8661 28.128 56.2298 28.8358 58.2032 28.8358C60.457 28.8358 62.0576 27.8014 62.0576 25.4523V22.5861H62.0548Z" fill="#343049"/>
<path d="M79.1761 10.367V13.4211C79.7858 11.7307 82.3227 9.84985 85.4693 9.84985C85.7551 9.84985 85.9892 9.84985 86.2695 9.89613V16.4751C85.5183 16.2873 84.6717 16.1948 84.062 16.1948C81.4299 16.1948 80.1124 17.4632 79.598 19.3441C79.3611 20.1906 79.2686 21.2223 79.2686 22.3519V32.7362H72.4065V10.367H79.1733H79.1761Z" fill="#343049"/>
<path d="M95.6386 10.3699H88.7302V32.7391H95.6386V10.3699Z" fill="#343049"/>
<path d="M177.987 27.1454C177.987 28.5527 178.172 29.0236 179.16 29.0236H179.489V32.9732C178.452 33.161 177.418 33.2535 176.291 33.2535C174.317 33.2535 172.485 32.8779 172.015 31.2338H171.968C170.934 32.358 169.29 33.2998 165.67 33.2998C160.735 33.2998 157.588 30.7602 157.588 26.1083C157.588 21.8348 160.833 20.1418 165.58 19.3878L170.232 18.6365C171.454 18.446 171.639 18.3072 171.639 17.6022V17.2265C171.639 15.5362 170.7 14.5944 168.351 14.5944C166.002 14.5944 164.641 15.5797 164.641 17.8362L158.299 17.79C158.203 12.6672 162.341 9.89624 168.634 9.89624C174.369 9.89624 177.989 11.6819 177.989 16.7556V27.1427L177.987 27.1454ZM171.593 22.5861C171.078 22.7739 170.654 23.008 168.258 23.4816C166.048 23.9035 164.404 24.2792 164.404 26.2036C164.404 28.128 165.768 28.8358 167.741 28.8358C169.995 28.8358 171.595 27.8014 171.595 25.4523V22.5861H171.593Z" fill="#343049"/>
<path d="M113.854 17.183C112.21 15.6778 110 14.7387 107.792 14.7387C106.241 14.7387 104.882 15.2531 104.882 16.3828C104.882 17.5124 105.914 17.888 108.217 18.3562L111.742 19.1102C115.359 19.8615 118.65 21.3177 118.65 25.5939C118.65 30.8092 114.091 33.2971 108.783 33.2971C103.475 33.2971 99.3378 31.0461 97.3181 28.2724L101.641 24.791C103.002 26.6718 105.683 28.2206 108.783 28.2206C111.083 28.2206 112.259 27.4694 112.259 26.2472C112.259 25.025 110.895 24.7474 109.39 24.4616L105.865 23.7593C103.611 23.3374 101.681 22.5834 100.318 21.4075C99.0982 20.3759 98.3932 18.9196 98.3932 17.0388C98.3932 11.7282 103.519 9.80103 107.934 9.80103C112.117 9.80103 115.452 11.3526 117.708 13.5138L113.854 17.1803V17.183Z" fill="#343049"/>
<path d="M95.6386 0.782959H88.7302V7.69134H95.6386V0.782959Z" fill="#343049"/>
<path d="M22.6896 27.1917C21.4674 30.341 18.3208 33.3025 12.3978 33.3025C5.35059 33.3025 0.55719 29.2114 0.55719 21.6498C0.55719 14.0881 5.35059 9.80371 12.3978 9.80371C18.6012 9.80371 21.7968 13.1409 22.9264 16.7611L17.0034 18.7808C16.3474 16.3365 14.7931 14.9727 12.3978 14.9727C9.20219 14.9727 7.51184 17.4171 7.51184 21.5545C7.51184 25.6919 9.25119 28.0872 12.3978 28.0872C14.608 28.0872 16.1568 26.9113 16.8618 24.7991L22.6896 27.1944V27.1917Z" fill="#343049"/>
<path d="M22.6896 27.1917C21.4674 30.341 18.3208 33.3025 12.3978 33.3025C5.35059 33.3025 0.55719 29.2114 0.55719 21.6498C0.55719 14.0881 5.35059 9.80371 12.3978 9.80371C18.6012 9.80371 21.7968 13.1409 22.9264 16.7611L17.0034 18.7808C16.3474 16.3365 14.7931 14.9727 12.3978 14.9727C9.20219 14.9727 7.51184 17.4171 7.51184 21.5545C7.51184 25.6919 9.25119 28.0872 12.3978 28.0872C14.608 28.0872 16.1568 26.9113 16.8618 24.7991L22.6896 27.1944V27.1917Z" fill="#343049"/>
<path d="M22.6896 27.1917C21.4674 30.341 18.3208 33.3025 12.3978 33.3025C5.35059 33.3025 0.55719 29.2114 0.55719 21.6498C0.55719 14.0881 5.35059 9.80371 12.3978 9.80371C18.6012 9.80371 21.7968 13.1409 22.9264 16.7611L17.0034 18.7808C16.3474 16.3365 14.7931 14.9727 12.3978 14.9727C9.20219 14.9727 7.51184 17.4171 7.51184 21.5545C7.51184 25.6919 9.25119 28.0872 12.3978 28.0872C14.608 28.0872 16.1568 26.9113 16.8618 24.7991L22.6896 27.1944V27.1917Z" fill="#343049"/>
</g>
<defs>
<clipPath id="clip0_2_825">
<rect width="179.615" height="50" fill="white" transform="translate(0.192444 0.5)"/>
</clipPath>
</defs>
</svg>
