<svg width="722" height="190" viewBox="0 0 722 190" fill="none" xmlns="http://www.w3.org/2000/svg">
<rect width="722" height="190" rx="8" fill="#EAEAEA"/>
<path d="M329.6 118.367L329.533 118.433C328.633 116.467 328.067 114.233 327.833 111.767C328.067 114.2 328.7 116.4 329.6 118.367Z" fill="white"/>
<path d="M351 89.6C355.381 89.6 358.933 86.0481 358.933 81.6667C358.933 77.2852 355.381 73.7333 351 73.7333C346.619 73.7333 343.067 77.2852 343.067 81.6667C343.067 86.0481 346.619 89.6 351 89.6Z" fill="white"/>
<path d="M374.967 61.6667H347.033C334.9 61.6667 327.667 68.9 327.667 81.0333V108.967C327.667 112.6 328.3 115.767 329.533 118.433C332.4 124.767 338.533 128.333 347.033 128.333H374.967C387.1 128.333 394.333 121.1 394.333 108.967V101.333V81.0333C394.333 68.9 387.1 61.6667 374.967 61.6667ZM388.9 96.6667C386.3 94.4333 382.1 94.4333 379.5 96.6667L365.633 108.567C363.033 110.8 358.833 110.8 356.233 108.567L355.1 107.633C352.733 105.567 348.967 105.367 346.3 107.167L333.833 115.533C333.1 113.667 332.667 111.5 332.667 108.967V81.0333C332.667 71.6333 337.633 66.6667 347.033 66.6667H374.967C384.367 66.6667 389.333 71.6333 389.333 81.0333V97.0333L388.9 96.6667Z" fill="white"/>
<path d="M401.946 66.1593L320.765 124.551" stroke="white" stroke-width="5" stroke-linecap="round"/>
</svg>
